<svg width="107" height="107" viewBox="0 0 107 107" fill="none" xmlns="http://www.w3.org/2000/svg">
<rect opacity="0.14" x="0.241699" y="0.464844" width="106" height="106" rx="30" fill="#486284"/>
<g clip-path="url(#clip0_116_34)">
<path fill-rule="evenodd" clip-rule="evenodd" d="M38.4507 19.1333C35.6191 19.7155 33.2877 21.4196 32.0981 23.7764C31.3108 25.3362 31.121 26.2293 31.1953 28.0259C31.3092 30.7776 32.2955 32.6482 34.684 34.6416L35.3065 35.1611L34.3803 47.9521L33.4541 60.743L32.9623 61.3652C32.6919 61.7074 32.2695 62.3995 32.0237 62.9033C31.2186 64.5537 31.164 64.9613 31.164 69.3289V73.2786L30.3265 73.4219C28.6009 73.717 27.1207 74.8257 26.6184 76.199C26.3959 76.8071 26.359 76.8398 25.8935 76.8398C24.8193 76.8398 23.5199 77.5944 23.1887 78.4102C22.9051 79.1093 22.1103 82.6941 22.1145 83.2559C22.12 84.0183 22.2812 84.4154 22.832 85.0246C23.7645 86.0557 22.921 85.9938 36.0985 85.9971C47.7739 86 47.8406 85.9986 48.1937 85.7287C48.6848 85.3537 48.6848 84.6834 48.1937 84.3084C47.8407 84.0387 47.7701 84.0371 36.2204 84.0371C24.7792 84.0371 24.5985 84.0332 24.3588 83.7758C24.2248 83.6321 24.1209 83.3523 24.1279 83.1542C24.1519 82.4718 24.9856 79.2603 25.1981 79.0317C25.3982 78.8163 26.2801 78.8027 40.0763 78.8027H54.7418L54.9337 79.0972C55.1227 79.387 55.9609 82.7913 55.9609 83.2688C55.9609 83.4035 55.8396 83.6314 55.6914 83.7754C55.451 84.0088 55.2422 84.0371 53.7607 84.0371C52.1987 84.0371 52.0822 84.0552 51.8066 84.3399C51.3857 84.775 51.4194 85.3856 51.8838 85.7404C52.2307 86.0052 52.374 86.0204 54.1514 85.9788C55.9598 85.9367 56.075 85.9177 56.6101 85.5735C57.3336 85.1083 57.8624 84.3251 57.9475 83.5931C58.061 82.6154 57.0726 78.5837 56.5593 77.9302C56.1156 77.3655 55.3023 76.9668 54.4116 76.8775L53.7053 76.8067L53.3916 76.0716C52.8066 74.7012 51.4542 73.7064 49.7888 73.4217L48.9729 73.282L48.9284 69.1396L48.8838 64.9971L48.4736 63.8848C48.248 63.273 47.8239 62.4265 47.5312 62.0037C47.2385 61.5808 46.8966 61.0509 46.7714 60.8259C46.583 60.4874 46.3994 58.3481 45.7059 48.4093C45.245 41.8051 44.9007 36.3699 44.9406 36.3311C44.9805 36.2924 46.9541 37.2729 49.3264 38.5103L53.6396 40.7599L53.7102 41.2708C53.8468 42.2609 54.6866 43.7081 55.6625 44.6357C57.8684 46.7326 60.9631 47.1984 63.7773 45.8572C64.2007 45.6554 64.9367 45.1032 65.4942 44.5689L66.4698 43.6339L70.0089 43.2888C71.9553 43.0989 73.7753 42.9098 74.0532 42.8685L74.5586 42.7934V43.7905C74.5586 44.339 74.6405 44.9781 74.7406 45.2109C74.9561 45.7115 75.7732 46.443 76.2456 46.5582L76.58 46.6397V48.8838V51.1279L73.269 54.3331C71.4479 56.0958 69.8345 57.7688 69.6834 58.0508C69.2674 58.8277 69.3771 60.0404 69.9236 60.7066C70.9028 61.9 75.0379 64.4082 76.0264 64.4082C77.2494 64.4082 78.332 63.3329 78.332 62.1182C78.332 61.4123 78.1141 61.0323 77.157 60.0697L76.2569 59.1644L77.9346 57.5289C78.8573 56.6294 79.7499 55.8594 79.9181 55.8177C80.4558 55.6843 80.9392 56.0089 82.574 57.6005L84.1729 59.1571L83.1458 60.2749C82.0678 61.4483 81.855 61.9166 82.0251 62.7422C82.332 64.2322 84.013 64.9859 85.4092 64.2597C87.8323 62.9992 90.1104 61.2753 90.6104 60.3236C90.9401 59.6961 90.975 58.5776 90.6816 58.0403C90.5701 57.8361 88.9587 56.1972 87.1007 54.3985L83.7226 51.1279L83.7281 48.9024L83.7337 46.6768L84.4024 46.3722C85.2412 45.9901 85.7441 45.2369 85.7441 44.3628C85.7441 43.647 85.4538 43.3398 84.7773 43.3398C84.2888 43.3398 83.8574 43.6532 83.8574 44.008C83.8574 44.1123 83.7629 44.3285 83.6476 44.4884C83.4406 44.7755 83.3945 44.7793 80.1602 44.7793C77.5431 44.7793 76.8516 44.743 76.7287 44.5994C76.6209 44.4732 76.5857 43.5271 76.6112 41.4383L76.6474 38.4572L77.9951 37.864C79.9247 37.0149 80.4808 36.9967 81.9707 37.7345C83.2478 38.3669 83.6368 38.7942 83.78 39.7226C83.8291 40.0402 83.9886 40.4048 84.1346 40.5332C84.4823 40.8386 85.1286 40.8302 85.4881 40.5155C85.7391 40.2957 85.7669 40.1594 85.7123 39.413C85.594 37.7955 84.6805 36.7321 82.6533 35.8518C81.4445 35.3271 81.2886 35.2921 80.1513 35.2921C78.9527 35.292 78.917 35.3014 77.1191 36.0965L75.2998 36.9009L70.8916 36.457L66.4833 36.013L65.5584 35.1149C62.73 32.3686 58.4031 32.3268 55.6306 35.019C54.827 35.7993 53.8076 37.439 53.8026 37.9594C53.7964 38.5874 53.6127 38.5211 49.6506 36.4598L45.7193 34.4143L46.5819 33.5097C47.5219 32.5239 48.4069 30.9465 48.6842 29.7632C48.7728 29.3853 48.8652 29.0762 48.8899 29.0762C48.9144 29.0762 50.106 29.8705 51.538 30.8413C54.4033 32.7838 54.7498 32.9157 55.2772 32.2646C55.6396 31.8173 55.6314 31.3981 55.2534 31.0451C55.0865 30.8894 53.59 29.8379 51.9275 28.7086L48.9048 26.6553L48.7305 25.8141C48.1166 22.8546 45.6051 20.2497 42.4843 19.3358C41.6008 19.0771 39.2889 18.961 38.4507 19.1333ZM38.392 21.1704C36.7319 21.5607 35.2195 22.602 34.2677 24.0103C33.51 25.1314 33.1855 26.2158 33.1855 27.6268C33.1855 29.5954 33.8554 31.1456 35.2802 32.4741C39.1254 36.0595 45.3759 34.2973 46.7309 29.2459C47.3286 27.0176 46.638 24.7103 44.8551 22.9792C43.0621 21.238 40.7991 20.6047 38.392 21.1704ZM38.6147 23.1079C37.7426 23.3843 36.8963 23.9147 36.3645 24.5179C34.181 26.9949 34.9872 30.604 38.0371 32.0058C38.7962 32.3549 39.0568 32.4075 39.9912 32.4004C41.9497 32.3856 43.4462 31.5117 44.3814 29.8369C44.8192 29.0529 44.8427 28.9439 44.8427 27.7021C44.8427 26.5317 44.8026 26.3143 44.463 25.6426C43.9808 24.6892 43.0978 23.8296 42.1269 23.3683C41.2153 22.9352 39.5496 22.8118 38.6147 23.1079ZM38.73 25.1712C38.052 25.497 37.4275 26.2647 37.2141 27.0346C36.7192 28.8188 38.4954 30.7357 40.3859 30.4577C41.1743 30.3416 41.9403 29.8782 42.4051 29.2359C42.9456 28.4891 43.0524 27.2817 42.6457 26.5137C41.8805 25.0685 40.1664 24.4808 38.73 25.1712ZM59.1953 35.1743C57.7682 35.5447 56.6 36.5437 55.9207 37.9746C55.7028 38.4338 55.6394 38.8379 55.6326 39.8094C55.6247 40.9592 55.6577 41.1219 56.062 41.9192C56.5812 42.9433 57.427 43.7475 58.4979 44.2349C59.1578 44.5352 59.4383 44.583 60.5429 44.583C61.6476 44.583 61.9281 44.5352 62.588 44.2349C63.6593 43.7472 64.5046 42.9433 65.0239 41.9187C65.4285 41.1205 65.4612 40.9592 65.4522 39.809C65.4448 38.8418 65.3803 38.4318 65.164 37.9746C64.4761 36.5198 63.3103 35.5383 61.8286 35.1664C60.8479 34.9203 60.1667 34.9223 59.1953 35.1743ZM37.2285 36.0919C37.2285 36.195 36.8626 41.3796 36.4153 47.6131C35.9682 53.8467 35.6257 58.9697 35.6546 58.9977C35.6834 59.0257 36.0341 58.9011 36.434 58.7208C38.7105 57.6947 41.5109 57.7846 44.2794 58.9727C44.4964 59.0659 44.5163 59.0267 44.4518 58.6352C44.4115 58.3917 44.0321 53.2165 43.6087 47.1348C43.1851 41.0531 42.8214 36.0544 42.8004 36.0266C42.7793 35.9989 42.3812 36.0493 41.9158 36.1388C40.8097 36.3514 38.8279 36.3281 37.936 36.0919C37.322 35.9293 37.2285 35.9293 37.2285 36.0919ZM59.2627 37.0455C58.1368 37.5527 57.441 38.6213 57.4463 39.8352C57.4537 41.5629 58.7701 42.8164 60.5772 42.8164C63.9323 42.8164 64.8329 38.2579 61.7264 36.9998C61.0505 36.7261 59.9254 36.7469 59.2627 37.0455ZM67.4435 38.6616C67.5169 38.9676 67.5447 39.7331 67.5052 40.3628L67.4335 41.5078H67.8164C68.1925 41.5078 72.8628 41.0563 73.9858 40.9114L74.5586 40.8374V39.7987C74.5586 39.0343 74.5123 38.7598 74.3836 38.7598C74.2874 38.7598 72.7651 38.6125 71.0006 38.4326C69.2363 38.2527 67.684 38.1055 67.5513 38.1055C67.3362 38.1055 67.3245 38.1661 67.4435 38.6616ZM59.7957 39.081C59.0895 39.7666 59.5593 40.8535 60.5618 40.8535C61.1898 40.8535 61.6211 40.4145 61.6211 39.775C61.6211 38.8654 60.4687 38.4274 59.7957 39.081ZM78.6316 48.6069L78.6689 50.4717L80.185 50.5087L81.7011 50.5457V48.644V46.7422H80.1477H78.5941L78.6316 48.6069ZM74.7259 55.6744C72.1045 58.2214 71.459 58.9171 71.459 59.1953C71.459 59.7088 72.8315 60.766 74.9743 61.9029C76.755 62.8477 76.769 62.5869 75.0302 60.8685C73.256 59.1148 73.2323 59.2629 75.6704 56.8579C77.978 54.5814 78.6048 54.1107 79.5978 53.9084C80.2338 53.7789 80.4541 53.7913 81.1223 53.9939C81.8426 54.2124 82.0836 54.4048 84.228 56.4745C87.1229 59.2683 87.0649 59.0216 85.2724 60.9237C84.5683 61.6709 83.9922 62.3483 83.9922 62.4292C83.9922 62.7268 84.4698 62.5584 85.6649 61.8392C87.6067 60.6706 88.9785 59.5442 88.9785 59.1179C88.9785 59.0474 87.4791 57.5294 85.6467 55.7448L82.3147 52.5H80.1539H77.9931L74.7259 55.6744ZM38.3518 60.1452C36.1167 60.6715 34.1666 62.4619 33.434 64.6605C33.1755 65.4361 33.1412 65.9025 33.0834 69.4136L33.0193 73.3066H39.9754H46.9316L46.9296 69.6099C46.9281 66.7756 46.8801 65.7174 46.7241 65.0747C46.1541 62.7268 44.1748 60.7758 41.7375 60.1593C40.8006 59.9223 39.3241 59.9162 38.3518 60.1452ZM38.8457 63.1771C37.7019 63.6573 36.947 64.7719 36.941 65.989C36.9321 67.7717 38.2217 69.0142 40.0716 69.0057C41.0169 69.0012 41.7039 68.6906 42.3835 67.9601C43.4854 66.7758 43.4153 65.0433 42.2186 63.8811C41.3138 63.0026 39.9427 62.7165 38.8457 63.1771ZM39.4062 65.1411C38.4301 65.805 39.0967 67.2735 40.2751 67.0547C40.4558 67.0212 40.7236 66.8457 40.8703 66.6647C41.6588 65.6913 40.4488 64.432 39.4062 65.1411ZM30.5576 75.3338C30.4835 75.3579 30.2545 75.4136 30.0488 75.4577C29.6158 75.5505 28.6035 76.3919 28.6035 76.6587C28.6035 76.8116 30.3942 76.8398 40.0586 76.8398C47.6054 76.8398 51.5136 76.7952 51.5136 76.709C51.5136 76.3914 50.4534 75.5667 49.8582 75.4212C49.4159 75.313 46.5793 75.2725 39.9652 75.2799C34.8651 75.2855 30.6317 75.3098 30.5576 75.3338Z" fill="#2F5F9E"/>
</g>
<defs>
<clipPath id="clip0_116_34">
<rect width="69" height="67" fill="white" transform="translate(22 19)"/>
</clipPath>
</defs>
</svg>
