<svg width="107" height="107" viewBox="0 0 107 107" fill="none" xmlns="http://www.w3.org/2000/svg">
<rect opacity="0.14" x="0.241699" y="0.464844" width="106" height="106" rx="30" fill="#486284"/>
<path d="M59.4738 53.4736C59.4738 56.7873 56.7875 59.4736 53.4738 59.4736C50.1601 59.4736 47.4738 56.7873 47.4738 53.4736C47.4738 50.1599 50.1601 47.4736 53.4738 47.4736C56.7875 47.4736 59.4738 50.1599 59.4738 53.4736Z" stroke="#363538" stroke-width="4" stroke-linejoin="round"/>
<path d="M38.0518 44.186C37.1357 45.704 36.4373 47.3682 36 49.1354C37.5243 50.2278 38.4737 51.7676 38.4737 53.4737C38.4737 55.1798 37.5243 56.7196 36 57.8121C36.4373 59.5793 37.1357 61.2436 38.0519 62.7616C39.9016 62.4568 41.6611 62.8743 42.8671 64.0804C44.0732 65.2864 44.4907 67.0459 44.1859 68.8956C45.7039 69.8117 47.3682 70.5101 49.1354 70.9474C50.2278 69.4232 51.7676 68.4737 53.4737 68.4737C55.1798 68.4737 56.7196 69.4232 57.8121 70.9474C59.5793 70.5101 61.2435 69.8117 62.7616 68.8955C62.4568 67.0459 62.8743 65.2864 64.0803 64.0804C65.2864 62.8743 67.0458 62.4568 68.8955 62.7616C69.8117 61.2436 70.5101 59.5793 70.9474 57.8121C69.4232 56.7196 68.4737 55.1798 68.4737 53.4737C68.4737 51.7676 69.4232 50.2278 70.9474 49.1353C70.5101 47.3682 69.8118 45.704 68.8956 44.186C67.0459 44.4908 65.2864 44.0733 64.0803 42.8672C62.8743 41.6612 62.4567 39.9016 62.7616 38.0519C61.2436 37.1357 59.5793 36.4373 57.8121 36C56.7196 37.5243 55.1798 38.4737 53.4737 38.4737C51.7676 38.4737 50.2278 37.5243 49.1353 36C47.3681 36.4373 45.7039 37.1357 44.1859 38.0519C44.4907 39.9016 44.0732 41.6612 42.8671 42.8672C41.6611 44.0733 39.9016 44.4908 38.0518 44.186Z" stroke="#363538" stroke-width="4" stroke-linejoin="round"/>
</svg>
