<svg width="106" height="106" viewBox="0 0 106 106" fill="none" xmlns="http://www.w3.org/2000/svg">
<rect opacity="0.14" width="106" height="106" rx="30" fill="#486284"/>
<g clip-path="url(#clip0_116_40)">
<path d="M53 39.8C53 40.3523 53.4477 40.8 54 40.8C54.5523 40.8 55 40.3523 55 39.8H53ZM55 31C55 30.4477 54.5523 30 54 30C53.4477 30 53 30.4477 53 31H55ZM53 75C53 75.5523 53.4477 76 54 76C54.5523 76 55 75.5523 55 75H53ZM55 66.2C55 65.6477 54.5523 65.2 54 65.2C53.4477 65.2 53 65.6477 53 66.2H55ZM67.2 52C66.6477 52 66.2 52.4477 66.2 53C66.2 53.5523 66.6477 54 67.2 54V52ZM76 54C76.5523 54 77 53.5523 77 53C77 52.4477 76.5523 52 76 52V54ZM32 52C31.4477 52 31 52.4477 31 53C31 53.5523 31.4477 54 32 54V52ZM40.8 54C41.3523 54 41.8 53.5523 41.8 53C41.8 52.4477 41.3523 52 40.8 52V54ZM70.6 52.9999C70.6 62.1678 63.1679 69.5999 54 69.5999V71.5999C64.2725 71.5999 72.6 63.2724 72.6 52.9999H70.6ZM54 69.5999C44.8321 69.5999 37.4 62.1678 37.4 52.9999H35.4C35.4 63.2724 43.7275 71.5999 54 71.5999V69.5999ZM37.4 52.9999C37.4 43.8319 44.8321 36.3999 54 36.3999V34.3999C43.7275 34.3999 35.4 42.7274 35.4 52.9999H37.4ZM54 36.3999C63.1679 36.3999 70.6 43.8319 70.6 52.9999H72.6C72.6 42.7274 64.2725 34.3999 54 34.3999V36.3999ZM55 39.8V31H53V39.8H55ZM55 75V66.2H53V75H55ZM67.2 54H76V52H67.2V54ZM32 54H40.8V52H32V54ZM59.6 53C59.6 56.0928 57.0928 58.6 54 58.6V60.6C58.1974 60.6 61.6 57.1974 61.6 53H59.6ZM54 58.6C50.9072 58.6 48.4 56.0928 48.4 53H46.4C46.4 57.1974 49.8026 60.6 54 60.6V58.6ZM48.4 53C48.4 49.9072 50.9072 47.4 54 47.4V45.4C49.8026 45.4 46.4 48.8026 46.4 53H48.4ZM54 47.4C57.0928 47.4 59.6 49.9072 59.6 53H61.6C61.6 48.8026 58.1974 45.4 54 45.4V47.4Z" fill="#2F5F9E"/>
</g>
<defs>
<clipPath id="clip0_116_40">
<rect width="45" height="44" fill="white" transform="matrix(-1 0 0 1 75.7417 31.4648)"/>
</clipPath>
</defs>
</svg>
